<svg width="46" height="46" viewBox="0 0 46 46" fill="none" xmlns="http://www.w3.org/2000/svg">
<path d="M26.6667 17.1429H21.9048C20.3268 17.1429 19.0476 18.422 19.0476 20C19.0476 21.5779 20.3268 22.8571 21.9048 22.8571H23.8095C25.3875 22.8571 26.6667 24.1363 26.6667 25.7143C26.6667 27.2922 25.3875 28.5714 23.8095 28.5714H19.0476M22.8571 15.2381V17.1429M22.8571 28.5714V30.4762M34.2857 22.8571H34.3048M11.4286 22.8571H11.4476M3.80952 15.619L3.80952 30.0952C3.80952 32.2288 3.80952 33.2955 4.22474 34.1104C4.58997 34.8272 5.17275 35.41 5.88956 35.7753C6.70446 36.1905 7.77123 36.1905 9.90476 36.1905L35.8095 36.1905C37.9431 36.1905 39.0098 36.1905 39.8247 35.7753C40.5415 35.41 41.1243 34.8272 41.4895 34.1104C41.9048 33.2955 41.9048 32.2288 41.9048 30.0952V15.619C41.9048 13.4855 41.9048 12.4187 41.4896 11.6038C41.1243 10.887 40.5415 10.3043 39.8247 9.93902C39.0098 9.52381 37.9431 9.52381 35.8095 9.52381L9.90476 9.5238C7.77123 9.5238 6.70446 9.5238 5.88956 9.93902C5.17275 10.3042 4.58997 10.887 4.22474 11.6038C3.80952 12.4187 3.80952 13.4855 3.80952 15.619ZM35.2381 22.8571C35.2381 23.3831 34.8117 23.8095 34.2857 23.8095C33.7597 23.8095 33.3333 23.3831 33.3333 22.8571C33.3333 22.3312 33.7597 21.9048 34.2857 21.9048C34.8117 21.9048 35.2381 22.3312 35.2381 22.8571ZM12.381 22.8571C12.381 23.3831 11.9546 23.8095 11.4286 23.8095C10.9026 23.8095 10.4762 23.3831 10.4762 22.8571C10.4762 22.3312 10.9026 21.9048 11.4286 21.9048C11.9546 21.9048 12.381 22.3312 12.381 22.8571Z" stroke="#2E4580" stroke-width="3.80952" stroke-linecap="round" stroke-linejoin="round"/>
</svg>
