<svg width="1200" height="552" viewBox="0 0 1200 552" fill="none" xmlns="http://www.w3.org/2000/svg">
<path d="M0 507.517C0 522.826 0 530.481 2.97932 536.328C5.60001 541.471 9.78171 545.653 14.9251 548.274C20.7723 551.253 28.4268 551.253 43.7358 551.253H1121.7C1147.28 551.253 1160.07 551.253 1167.32 545.895C1173.63 541.223 1177.63 534.061 1178.3 526.234C1179.06 517.255 1172.35 506.364 1158.94 484.581L929.322 111.783C925.167 105.037 923.089 101.664 920.303 99.1019C917.835 96.8323 914.97 95.0362 911.852 93.8031C908.332 92.411 904.391 92.0101 896.509 91.2082L48.1624 4.89996C31.4766 3.20239 23.1337 2.35358 16.6834 5.08276C11.0177 7.47998 6.32633 11.7183 3.36799 17.1122C0 23.2531 0 31.6391 0 48.4111V507.517Z" fill="#2F4580"/>
<mask id="mask0_45_99" style="mask-type:alpha" maskUnits="userSpaceOnUse" x="0" y="3" width="1179" height="549">
<path d="M0 510.251C0 522.987 0 529.355 2.08074 534.379C4.85506 541.076 10.1765 546.398 16.8743 549.172C21.8976 551.253 28.2658 551.253 41.0023 551.253H1126.59C1147.86 551.253 1158.49 551.253 1164.9 547.493C1173.44 542.48 1178.6 533.238 1178.39 523.335C1178.23 515.908 1172.65 506.855 1161.5 488.748L928.614 110.634C925.153 105.016 923.423 102.207 921.206 99.9715C918.25 96.9913 914.647 94.7321 910.676 93.3689C907.699 92.3466 904.417 92.0127 897.852 91.3448L45.1523 4.59369C31.2728 3.18164 24.333 2.47565 18.823 4.28119C11.4763 6.68854 5.4926 12.0944 2.35397 19.1597C0 24.4587 0 31.4343 0 45.3854V510.251Z" fill="#2F4580"/>
</mask>
<g mask="url(#mask0_45_99)">
<g opacity="0.6">
<g opacity="0.2">
<path d="M672.254 494.758C653.741 483.178 637.406 469.494 624.338 453.704C641.762 448.44 658.097 441.072 672.254 432.65C691.312 421.071 707.647 406.86 720.715 390.543C729.427 395.807 739.228 400.017 750.662 403.175C765.364 406.86 782.788 408.965 803.479 408.965C915.101 408.965 934.158 348.437 934.158 258.96L934.158 39.4781L672.799 39.4781L672.799 196.326C672.799 269.486 658.097 323.173 593.302 340.542C588.401 342.121 582.412 343.173 576.967 344.226C574.789 331.068 574.244 317.383 574.244 303.698L574.244 -78.9473L1033.8 -78.9473L1033.8 303.698C1033.8 423.176 960.294 527.917 804.023 527.917C750.118 527.917 706.558 515.285 672.254 494.758Z" fill="white"/>
</g>
<g opacity="0.4">
<path d="M540.485 464.959C571.521 464.959 599.291 460.748 624.338 453.38C641.762 448.116 658.097 440.748 672.254 432.326C691.311 420.747 707.646 406.536 720.714 390.22C733.238 375.482 743.039 358.64 750.662 340.744C763.73 310.217 770.264 276.531 770.264 241.267L770.264 39.1543L672.798 39.1543L672.798 196.002C672.798 269.163 658.097 322.849 593.301 340.218C588.401 341.797 582.412 342.85 576.966 343.902C566.077 345.481 554.098 346.534 540.485 346.534C428.863 346.534 409.805 286.005 409.805 196.528L409.805 39.1543L573.699 39.1543L573.699 -79.271L310.706 -79.271L310.706 241.267C310.706 360.219 384.214 464.959 540.485 464.959Z" fill="white"/>
</g>
</g>
</g>
<path d="M116.945 343.148L110.45 315.085H116.183L121.155 339.741H121.355L126.928 315.085H133.423L139.316 339.741H139.476L144.167 315.085H149.9L143.486 343.148H135.507L130.215 320.938H130.055L124.883 343.148H116.945ZM155.856 343.63C154.279 343.63 152.969 343.362 151.927 342.828C150.911 342.293 150.163 341.572 149.681 340.663C149.2 339.754 148.96 338.752 148.96 337.656C148.96 336.426 149.267 335.344 149.882 334.409C150.523 333.473 151.486 332.751 152.769 332.244C154.051 331.709 155.668 331.442 157.62 331.442H162.631C162.631 330.453 162.484 329.638 162.19 328.996C161.923 328.355 161.495 327.874 160.907 327.553C160.346 327.232 159.624 327.072 158.742 327.072C157.7 327.072 156.804 327.312 156.056 327.794C155.334 328.248 154.88 328.97 154.693 329.958H149.441C149.601 328.488 150.082 327.219 150.884 326.15C151.713 325.081 152.795 324.252 154.132 323.664C155.495 323.076 157.032 322.782 158.742 322.782C160.666 322.782 162.324 323.103 163.713 323.744C165.103 324.359 166.172 325.281 166.921 326.511C167.669 327.713 168.043 329.183 168.043 330.921V343.148H163.553L162.992 340.061H162.831C162.404 340.649 161.936 341.171 161.428 341.625C160.947 342.079 160.413 342.454 159.825 342.748C159.237 343.042 158.608 343.255 157.94 343.389C157.272 343.549 156.577 343.63 155.856 343.63ZM157.62 339.46C158.368 339.46 159.009 339.34 159.544 339.099C160.105 338.832 160.586 338.485 160.987 338.057C161.388 337.629 161.695 337.135 161.909 336.573C162.15 335.985 162.31 335.384 162.39 334.769H158.221C157.392 334.769 156.711 334.876 156.176 335.09C155.668 335.277 155.294 335.558 155.054 335.932C154.813 336.279 154.693 336.694 154.693 337.175C154.693 337.656 154.813 338.07 155.054 338.418C155.294 338.765 155.642 339.032 156.096 339.22C156.55 339.38 157.058 339.46 157.62 339.46ZM171.051 343.148V323.263H175.661L176.142 326.511H176.303C176.944 325.335 177.813 324.426 178.909 323.784C180.004 323.116 181.381 322.782 183.038 322.782C184.695 322.782 186.098 323.143 187.247 323.865C188.397 324.56 189.265 325.589 189.853 326.952C190.468 328.315 190.776 329.999 190.776 332.003V343.148H185.363V332.484C185.363 330.827 185.029 329.558 184.361 328.676C183.693 327.794 182.637 327.353 181.194 327.353C180.285 327.353 179.47 327.58 178.748 328.034C178.027 328.462 177.465 329.09 177.064 329.918C176.663 330.72 176.463 331.709 176.463 332.885V343.148H171.051ZM202.858 343.148C201.442 343.148 200.199 342.935 199.13 342.507C198.087 342.053 197.272 341.318 196.684 340.302C196.096 339.26 195.802 337.843 195.802 336.052V327.593H192.395V323.263H195.802L196.404 317.851H201.215V323.263H206.507V327.593H201.215V336.132C201.215 337.095 201.415 337.763 201.816 338.137C202.217 338.485 202.898 338.658 203.861 338.658H206.386V343.148H202.858ZM216.549 343.148V315.085H226.292C229.552 315.085 232.252 315.673 234.39 316.849C236.528 317.998 238.105 319.628 239.121 321.74C240.163 323.825 240.684 326.283 240.684 329.117C240.684 331.95 240.163 334.422 239.121 336.533C238.105 338.618 236.528 340.249 234.39 341.425C232.278 342.574 229.579 343.148 226.292 343.148H216.549ZM221.962 338.498H226.011C228.309 338.498 230.127 338.124 231.463 337.375C232.8 336.627 233.748 335.558 234.31 334.168C234.871 332.751 235.152 331.068 235.152 329.117C235.152 327.139 234.871 325.455 234.31 324.065C233.748 322.649 232.8 321.566 231.463 320.818C230.127 320.069 228.309 319.695 226.011 319.695H221.962V338.498ZM253.459 343.63C251.428 343.63 249.624 343.202 248.047 342.347C246.496 341.491 245.28 340.289 244.398 338.738C243.516 337.188 243.075 335.411 243.075 333.406C243.075 331.322 243.503 329.491 244.358 327.914C245.24 326.31 246.456 325.054 248.007 324.145C249.583 323.237 251.401 322.782 253.459 322.782C255.463 322.782 257.214 323.21 258.711 324.065C260.208 324.92 261.384 326.096 262.239 327.593C263.094 329.063 263.522 330.734 263.522 332.604C263.522 332.872 263.508 333.179 263.482 333.527C263.482 333.847 263.468 334.181 263.442 334.529H246.924V331.201H258.029C257.949 329.945 257.481 328.943 256.626 328.194C255.798 327.446 254.755 327.072 253.499 327.072C252.564 327.072 251.708 327.286 250.933 327.713C250.158 328.114 249.543 328.742 249.089 329.598C248.635 330.426 248.407 331.482 248.407 332.765V333.927C248.407 335.023 248.621 335.972 249.049 336.774C249.477 337.549 250.065 338.15 250.813 338.578C251.588 339.006 252.457 339.22 253.419 339.22C254.408 339.22 255.236 339.006 255.904 338.578C256.573 338.124 257.08 337.549 257.428 336.854H262.92C262.546 338.11 261.918 339.26 261.036 340.302C260.154 341.318 259.072 342.133 257.789 342.748C256.506 343.336 255.063 343.63 253.459 343.63ZM275.697 343.63C273.666 343.63 271.862 343.202 270.285 342.347C268.734 341.491 267.518 340.289 266.636 338.738C265.754 337.188 265.313 335.411 265.313 333.406C265.313 331.322 265.741 329.491 266.596 327.914C267.478 326.31 268.694 325.054 270.245 324.145C271.821 323.237 273.639 322.782 275.697 322.782C277.701 322.782 279.452 323.21 280.949 324.065C282.446 324.92 283.622 326.096 284.477 327.593C285.332 329.063 285.76 330.734 285.76 332.604C285.76 332.872 285.746 333.179 285.72 333.527C285.72 333.847 285.706 334.181 285.68 334.529H269.162V331.201H280.267C280.187 329.945 279.719 328.943 278.864 328.194C278.036 327.446 276.993 327.072 275.737 327.072C274.802 327.072 273.946 327.286 273.171 327.713C272.396 328.114 271.781 328.742 271.327 329.598C270.873 330.426 270.645 331.482 270.645 332.765V333.927C270.645 335.023 270.859 335.972 271.287 336.774C271.715 337.549 272.303 338.15 273.051 338.578C273.826 339.006 274.695 339.22 275.657 339.22C276.646 339.22 277.474 339.006 278.143 338.578C278.811 338.124 279.319 337.549 279.666 336.854H285.158C284.784 338.11 284.156 339.26 283.274 340.302C282.392 341.318 281.31 342.133 280.027 342.748C278.744 343.336 277.301 343.63 275.697 343.63ZM288.353 351.167V323.263H292.883L293.204 326.751H293.365C293.872 325.923 294.474 325.214 295.169 324.626C295.89 324.038 296.706 323.584 297.614 323.263C298.55 322.943 299.565 322.782 300.661 322.782C302.559 322.782 304.203 323.237 305.592 324.145C306.982 325.027 308.065 326.257 308.84 327.834C309.615 329.411 310.002 331.201 310.002 333.206C310.002 335.21 309.615 337.001 308.84 338.578C308.065 340.155 306.969 341.398 305.552 342.307C304.136 343.189 302.452 343.63 300.501 343.63C298.951 343.63 297.601 343.336 296.452 342.748C295.329 342.133 294.434 341.411 293.766 340.583V351.167H288.353ZM299.098 339.22C300.193 339.22 301.142 338.966 301.944 338.458C302.773 337.95 303.401 337.255 303.828 336.373C304.283 335.464 304.51 334.422 304.51 333.246C304.51 332.043 304.283 331.001 303.828 330.119C303.401 329.21 302.773 328.502 301.944 327.994C301.142 327.486 300.193 327.232 299.098 327.232C298.029 327.232 297.08 327.486 296.251 327.994C295.423 328.502 294.781 329.21 294.327 330.119C293.872 331.001 293.645 332.043 293.645 333.246C293.645 334.422 293.872 335.464 294.327 336.373C294.781 337.255 295.423 337.95 296.251 338.458C297.08 338.966 298.029 339.22 299.098 339.22ZM322.405 343.63C320.373 343.63 318.569 343.202 316.992 342.347C315.442 341.491 314.226 340.289 313.344 338.738C312.462 337.188 312.021 335.411 312.021 333.406C312.021 331.322 312.449 329.491 313.304 327.914C314.186 326.31 315.402 325.054 316.952 324.145C318.529 323.237 320.347 322.782 322.405 322.782C324.409 322.782 326.16 323.21 327.657 324.065C329.153 324.92 330.329 326.096 331.185 327.593C332.04 329.063 332.468 330.734 332.468 332.604C332.468 332.872 332.454 333.179 332.427 333.527C332.427 333.847 332.414 334.181 332.387 334.529H315.87V331.201H326.975C326.895 329.945 326.427 328.943 325.572 328.194C324.743 327.446 323.701 327.072 322.445 327.072C321.509 327.072 320.654 327.286 319.879 327.713C319.104 328.114 318.489 328.742 318.035 329.598C317.58 330.426 317.353 331.482 317.353 332.765V333.927C317.353 335.023 317.567 335.972 317.995 336.774C318.422 337.549 319.01 338.15 319.759 338.578C320.534 339.006 321.402 339.22 322.365 339.22C323.353 339.22 324.182 339.006 324.85 338.578C325.518 338.124 326.026 337.549 326.374 336.854H331.866C331.492 338.11 330.864 339.26 329.982 340.302C329.1 341.318 328.017 342.133 326.735 342.748C325.452 343.336 324.008 343.63 322.405 343.63ZM334.86 343.148V323.263H339.471L339.952 327.633H340.112C340.7 326.217 341.342 325.174 342.037 324.506C342.732 323.811 343.52 323.357 344.402 323.143C345.311 322.902 346.327 322.782 347.449 322.782V328.515H345.966C345.057 328.515 344.242 328.622 343.52 328.836C342.825 329.023 342.237 329.344 341.756 329.798C341.275 330.226 340.901 330.8 340.634 331.522C340.393 332.244 340.273 333.112 340.273 334.128V343.148H334.86ZM357.495 343.148V315.085H362.907V343.148H357.495ZM366.299 343.148V323.263H370.91L371.391 326.511H371.551C372.193 325.335 373.061 324.426 374.157 323.784C375.253 323.116 376.629 322.782 378.286 322.782C379.943 322.782 381.347 323.143 382.496 323.865C383.645 324.56 384.514 325.589 385.102 326.952C385.717 328.315 386.024 329.999 386.024 332.003V343.148H380.612V332.484C380.612 330.827 380.278 329.558 379.609 328.676C378.941 327.794 377.885 327.353 376.442 327.353C375.533 327.353 374.718 327.58 373.997 328.034C373.275 328.462 372.714 329.09 372.313 329.918C371.912 330.72 371.711 331.709 371.711 332.885V343.148H366.299ZM397.385 343.63C395.621 343.63 394.058 343.336 392.694 342.748C391.358 342.16 390.276 341.358 389.447 340.342C388.645 339.3 388.177 338.124 388.044 336.814H393.456C393.563 337.295 393.777 337.75 394.098 338.177C394.418 338.605 394.846 338.952 395.381 339.22C395.942 339.46 396.583 339.58 397.305 339.58C398.053 339.58 398.655 339.487 399.109 339.3C399.563 339.086 399.897 338.819 400.111 338.498C400.352 338.177 400.472 337.83 400.472 337.455C400.472 336.948 400.298 336.56 399.951 336.293C399.63 335.999 399.149 335.745 398.508 335.531C397.893 335.317 397.158 335.09 396.303 334.85C395.421 334.609 394.525 334.355 393.617 334.088C392.735 333.821 391.919 333.486 391.171 333.086C390.423 332.658 389.821 332.123 389.367 331.482C388.939 330.814 388.725 329.985 388.725 328.996C388.725 327.847 389.046 326.805 389.688 325.869C390.329 324.934 391.251 324.185 392.454 323.624C393.683 323.063 395.14 322.782 396.824 322.782C399.229 322.782 401.14 323.33 402.557 324.426C404 325.522 404.842 327.032 405.083 328.956H399.991C399.857 328.288 399.51 327.767 398.949 327.393C398.414 327.018 397.706 326.831 396.824 326.831C395.888 326.831 395.167 327.018 394.659 327.393C394.178 327.74 393.937 328.168 393.937 328.676C393.937 329.05 394.098 329.37 394.418 329.638C394.739 329.878 395.207 330.105 395.822 330.319C396.463 330.506 397.225 330.72 398.107 330.961C399.523 331.335 400.82 331.736 401.996 332.163C403.172 332.591 404.107 333.179 404.802 333.927C405.497 334.649 405.844 335.678 405.844 337.014C405.871 338.297 405.537 339.433 404.842 340.422C404.147 341.411 403.172 342.2 401.915 342.788C400.659 343.349 399.149 343.63 397.385 343.63ZM408.872 343.148V323.263H414.284V343.148H408.872ZM411.598 320.738C410.609 320.738 409.794 320.457 409.152 319.896C408.538 319.308 408.23 318.573 408.23 317.691C408.23 316.809 408.538 316.074 409.152 315.486C409.794 314.898 410.609 314.604 411.598 314.604C412.587 314.604 413.389 314.898 414.003 315.486C414.618 316.074 414.926 316.809 414.926 317.691C414.926 318.546 414.618 319.267 414.003 319.855C413.389 320.444 412.587 320.738 411.598 320.738ZM427.477 351.648C425.579 351.648 423.909 351.421 422.465 350.966C421.049 350.512 419.94 349.83 419.138 348.922C418.363 348.04 417.975 346.97 417.975 345.714C417.975 344.779 418.216 343.924 418.697 343.148C419.178 342.347 419.886 341.625 420.822 340.984C421.757 340.315 422.907 339.741 424.27 339.26L426.234 341.946C425.058 342.347 424.203 342.828 423.668 343.389C423.134 343.95 422.866 344.592 422.866 345.313C422.866 345.848 423.054 346.302 423.428 346.676C423.829 347.051 424.377 347.331 425.071 347.518C425.766 347.732 426.568 347.839 427.477 347.839C428.386 347.839 429.147 347.732 429.762 347.518C430.377 347.305 430.845 346.997 431.165 346.596C431.486 346.222 431.646 345.781 431.646 345.273C431.646 344.552 431.392 343.99 430.885 343.589C430.377 343.215 429.388 342.975 427.918 342.868C426.555 342.761 425.352 342.614 424.31 342.427C423.267 342.213 422.345 341.972 421.543 341.705C420.768 341.411 420.1 341.09 419.539 340.743C418.978 340.396 418.523 340.048 418.176 339.701V338.779L422.465 334.368L425.633 335.571L421.303 340.382L422.746 337.977C423.013 338.084 423.294 338.191 423.588 338.297C423.882 338.404 424.243 338.511 424.671 338.618C425.125 338.725 425.686 338.832 426.354 338.939C427.049 339.019 427.918 339.113 428.96 339.22C430.724 339.353 432.168 339.661 433.29 340.142C434.413 340.623 435.241 341.278 435.776 342.106C436.31 342.935 436.578 343.95 436.578 345.153C436.578 346.195 436.243 347.211 435.575 348.2C434.934 349.216 433.945 350.044 432.609 350.686C431.272 351.327 429.562 351.648 427.477 351.648ZM427.517 337.255C425.833 337.255 424.377 336.934 423.147 336.293C421.944 335.651 421.009 334.783 420.341 333.687C419.699 332.591 419.378 331.375 419.378 330.039C419.378 328.702 419.699 327.486 420.341 326.39C421.009 325.295 421.944 324.426 423.147 323.784C424.377 323.116 425.833 322.782 427.517 322.782C429.201 322.782 430.644 323.116 431.847 323.784C433.076 324.426 434.012 325.295 434.653 326.39C435.295 327.486 435.615 328.702 435.615 330.039C435.615 331.375 435.295 332.591 434.653 333.687C434.012 334.783 433.076 335.651 431.847 336.293C430.644 336.934 429.201 337.255 427.517 337.255ZM427.477 333.326C428.546 333.326 429.401 333.059 430.043 332.524C430.711 331.963 431.045 331.134 431.045 330.039C431.045 328.943 430.711 328.128 430.043 327.593C429.401 327.032 428.559 326.751 427.517 326.751C426.448 326.751 425.579 327.032 424.911 327.593C424.27 328.128 423.949 328.943 423.949 330.039C423.949 331.134 424.27 331.963 424.911 332.524C425.579 333.059 426.435 333.326 427.477 333.326ZM430.764 326.912L429.882 323.263H438.221V326.19L430.764 326.912ZM441.083 343.148V315.085H446.415V326.591H446.576C447.271 325.361 448.179 324.426 449.302 323.784C450.424 323.116 451.747 322.782 453.271 322.782C454.874 322.782 456.238 323.143 457.36 323.865C458.483 324.56 459.338 325.589 459.926 326.952C460.514 328.315 460.808 329.999 460.808 332.003V343.148H455.436V332.484C455.436 330.827 455.102 329.558 454.433 328.676C453.792 327.794 452.75 327.353 451.306 327.353C450.371 327.353 449.542 327.58 448.821 328.034C448.099 328.462 447.524 329.09 447.097 329.918C446.696 330.72 446.495 331.709 446.495 332.885V343.148H441.083ZM472.886 343.148C471.469 343.148 470.227 342.935 469.158 342.507C468.115 342.053 467.3 341.318 466.712 340.302C466.124 339.26 465.83 337.843 465.83 336.052V327.593H462.422V323.263H465.83L466.431 317.851H471.242V323.263H476.534V327.593H471.242V336.132C471.242 337.095 471.443 337.763 471.844 338.137C472.245 338.485 472.926 338.658 473.888 338.658H476.414V343.148H472.886ZM486.69 343.63C484.926 343.63 483.362 343.336 481.999 342.748C480.663 342.16 479.58 341.358 478.752 340.342C477.95 339.3 477.482 338.124 477.348 336.814H482.761C482.868 337.295 483.081 337.75 483.402 338.177C483.723 338.605 484.15 338.952 484.685 339.22C485.246 339.46 485.888 339.58 486.609 339.58C487.358 339.58 487.959 339.487 488.413 339.3C488.868 339.086 489.202 338.819 489.416 338.498C489.656 338.177 489.777 337.83 489.777 337.455C489.777 336.948 489.603 336.56 489.255 336.293C488.935 335.999 488.454 335.745 487.812 335.531C487.197 335.317 486.462 335.09 485.607 334.85C484.725 334.609 483.83 334.355 482.921 334.088C482.039 333.821 481.224 333.486 480.475 333.086C479.727 332.658 479.126 332.123 478.671 331.482C478.244 330.814 478.03 329.985 478.03 328.996C478.03 327.847 478.351 326.805 478.992 325.869C479.634 324.934 480.556 324.185 481.758 323.624C482.988 323.063 484.444 322.782 486.128 322.782C488.534 322.782 490.445 323.33 491.861 324.426C493.305 325.522 494.147 327.032 494.387 328.956H489.295C489.162 328.288 488.814 327.767 488.253 327.393C487.719 327.018 487.01 326.831 486.128 326.831C485.193 326.831 484.471 327.018 483.963 327.393C483.482 327.74 483.242 328.168 483.242 328.676C483.242 329.05 483.402 329.37 483.723 329.638C484.044 329.878 484.511 330.105 485.126 330.319C485.767 330.506 486.529 330.72 487.411 330.961C488.828 331.335 490.124 331.736 491.3 332.163C492.476 332.591 493.412 333.179 494.106 333.927C494.801 334.649 495.149 335.678 495.149 337.014C495.176 338.297 494.841 339.433 494.147 340.422C493.452 341.411 492.476 342.2 491.22 342.788C489.964 343.349 488.454 343.63 486.69 343.63ZM112.054 391.148V363.085H122.558C124.803 363.085 126.661 363.472 128.131 364.247C129.627 365.022 130.737 366.065 131.458 367.374C132.18 368.657 132.541 370.087 132.541 371.664C132.541 373.161 132.18 374.564 131.458 375.874C130.763 377.157 129.667 378.199 128.171 379.001C126.701 379.776 124.803 380.163 122.478 380.163H117.466V391.148H112.054ZM126.607 391.148L120.834 378.8H126.687L132.781 391.148H126.607ZM117.466 376.235H122.197C123.854 376.235 125.07 375.834 125.845 375.032C126.621 374.23 127.008 373.174 127.008 371.865C127.008 370.555 126.621 369.526 125.845 368.778C125.07 368.003 123.854 367.615 122.197 367.615H117.466V376.235ZM144.07 391.63C142.038 391.63 140.234 391.202 138.657 390.347C137.107 389.491 135.891 388.289 135.009 386.738C134.127 385.188 133.686 383.411 133.686 381.406C133.686 379.322 134.114 377.491 134.969 375.914C135.851 374.31 137.067 373.054 138.617 372.145C140.194 371.237 142.012 370.782 144.07 370.782C146.074 370.782 147.825 371.21 149.322 372.065C150.818 372.92 151.994 374.096 152.85 375.593C153.705 377.063 154.133 378.734 154.133 380.604C154.133 380.872 154.119 381.179 154.092 381.527C154.092 381.847 154.079 382.181 154.052 382.529H137.535V379.201H148.64C148.56 377.945 148.092 376.943 147.237 376.194C146.408 375.446 145.366 375.072 144.11 375.072C143.174 375.072 142.319 375.286 141.544 375.713C140.769 376.114 140.154 376.742 139.7 377.598C139.245 378.426 139.018 379.482 139.018 380.765V381.927C139.018 383.023 139.232 383.972 139.66 384.774C140.087 385.549 140.675 386.15 141.424 386.578C142.199 387.006 143.067 387.22 144.03 387.22C145.018 387.22 145.847 387.006 146.515 386.578C147.183 386.124 147.691 385.549 148.039 384.854H153.531C153.157 386.11 152.529 387.26 151.647 388.302C150.765 389.318 149.682 390.133 148.4 390.748C147.117 391.336 145.673 391.63 144.07 391.63ZM163.02 391.63C161.443 391.63 160.134 391.362 159.091 390.828C158.076 390.293 157.327 389.572 156.846 388.663C156.365 387.754 156.125 386.752 156.125 385.656C156.125 384.426 156.432 383.344 157.047 382.409C157.688 381.473 158.65 380.751 159.933 380.244C161.216 379.709 162.833 379.442 164.784 379.442H169.796C169.796 378.453 169.649 377.638 169.355 376.996C169.087 376.355 168.66 375.874 168.072 375.553C167.51 375.232 166.789 375.072 165.907 375.072C164.864 375.072 163.969 375.312 163.221 375.794C162.499 376.248 162.045 376.97 161.858 377.958H156.606C156.766 376.488 157.247 375.219 158.049 374.15C158.877 373.081 159.96 372.252 161.296 371.664C162.659 371.076 164.196 370.782 165.907 370.782C167.831 370.782 169.488 371.103 170.878 371.744C172.268 372.359 173.337 373.281 174.085 374.511C174.834 375.713 175.208 377.183 175.208 378.921V391.148H170.718L170.156 388.061H169.996C169.568 388.649 169.101 389.171 168.593 389.625C168.112 390.079 167.577 390.454 166.989 390.748C166.401 391.042 165.773 391.255 165.105 391.389C164.437 391.549 163.742 391.63 163.02 391.63ZM164.784 387.46C165.533 387.46 166.174 387.34 166.709 387.099C167.27 386.832 167.751 386.485 168.152 386.057C168.553 385.629 168.86 385.135 169.074 384.573C169.315 383.985 169.475 383.384 169.555 382.769H165.386C164.557 382.769 163.876 382.876 163.341 383.09C162.833 383.277 162.459 383.558 162.218 383.932C161.978 384.279 161.858 384.694 161.858 385.175C161.858 385.656 161.978 386.07 162.218 386.418C162.459 386.765 162.806 387.032 163.261 387.22C163.715 387.38 164.223 387.46 164.784 387.46ZM188.078 391.63C185.966 391.63 184.122 391.189 182.545 390.307C180.995 389.398 179.779 388.168 178.897 386.618C178.042 385.041 177.614 383.237 177.614 381.206C177.614 379.175 178.055 377.384 178.937 375.834C179.819 374.257 181.049 373.027 182.625 372.145C184.202 371.237 186.02 370.782 188.078 370.782C190.644 370.782 192.795 371.45 194.532 372.787C196.296 374.123 197.419 375.967 197.9 378.319H192.167C191.953 377.357 191.459 376.609 190.684 376.074C189.935 375.54 189.053 375.272 188.038 375.272C187.102 375.272 186.26 375.513 185.512 375.994C184.79 376.448 184.216 377.117 183.788 377.999C183.36 378.881 183.147 379.95 183.147 381.206C183.147 382.115 183.267 382.93 183.507 383.651C183.748 384.373 184.082 384.988 184.51 385.496C184.937 386.003 185.445 386.391 186.033 386.658C186.648 386.899 187.316 387.019 188.038 387.019C188.733 387.019 189.361 386.912 189.922 386.698C190.483 386.458 190.964 386.124 191.365 385.696C191.766 385.242 192.033 384.707 192.167 384.092H197.9C197.419 386.391 196.296 388.222 194.532 389.585C192.795 390.948 190.644 391.63 188.078 391.63ZM200.693 391.148V363.085H206.025V374.591H206.186C206.88 373.361 207.789 372.426 208.912 371.784C210.034 371.116 211.357 370.782 212.881 370.782C214.484 370.782 215.847 371.143 216.97 371.865C218.093 372.56 218.948 373.589 219.536 374.952C220.124 376.315 220.418 377.999 220.418 380.003V391.148H215.046V380.484C215.046 378.827 214.712 377.558 214.043 376.676C213.402 375.794 212.36 375.353 210.916 375.353C209.981 375.353 209.152 375.58 208.431 376.034C207.709 376.462 207.134 377.09 206.707 377.918C206.306 378.72 206.105 379.709 206.105 380.885V391.148H200.693ZM245.333 391.63C242.553 391.63 240.108 391.015 237.996 389.785C235.912 388.556 234.268 386.859 233.065 384.694C231.862 382.502 231.261 379.976 231.261 377.117C231.261 374.257 231.862 371.744 233.065 369.579C234.268 367.388 235.912 365.677 237.996 364.448C240.108 363.218 242.553 362.604 245.333 362.604C248.139 362.604 250.598 363.218 252.71 364.448C254.848 365.677 256.505 367.388 257.681 369.579C258.857 371.744 259.445 374.257 259.445 377.117C259.445 379.976 258.857 382.502 257.681 384.694C256.505 386.859 254.848 388.556 252.71 389.785C250.598 391.015 248.139 391.63 245.333 391.63ZM245.333 386.779C247.097 386.779 248.62 386.391 249.903 385.616C251.186 384.814 252.175 383.691 252.87 382.248C253.565 380.805 253.912 379.094 253.912 377.117C253.912 375.112 253.565 373.401 252.87 371.985C252.175 370.542 251.186 369.432 249.903 368.657C248.62 367.882 247.097 367.495 245.333 367.495C243.622 367.495 242.126 367.882 240.843 368.657C239.56 369.432 238.558 370.542 237.836 371.985C237.141 373.401 236.794 375.112 236.794 377.117C236.794 379.094 237.141 380.805 237.836 382.248C238.558 383.691 239.56 384.814 240.843 385.616C242.126 386.391 243.622 386.779 245.333 386.779ZM270.007 391.63C268.376 391.63 266.986 391.282 265.837 390.587C264.688 389.892 263.806 388.863 263.191 387.5C262.576 386.11 262.269 384.413 262.269 382.409V371.263H267.641V381.927C267.641 383.585 267.975 384.854 268.643 385.736C269.338 386.618 270.407 387.059 271.851 387.059C272.786 387.059 273.601 386.845 274.296 386.418C275.018 385.963 275.579 385.322 275.98 384.493C276.381 383.665 276.581 382.676 276.581 381.527V371.263H281.994V391.148H277.383L276.902 387.981H276.742C276.127 389.104 275.258 389.999 274.136 390.667C273.04 391.309 271.664 391.63 270.007 391.63ZM294.277 391.148C292.86 391.148 291.618 390.935 290.549 390.507C289.506 390.053 288.691 389.318 288.103 388.302C287.515 387.26 287.221 385.843 287.221 384.052V375.593H283.813V371.263H287.221L287.822 365.851H292.633V371.263H297.925V375.593H292.633V384.132C292.633 385.095 292.834 385.763 293.235 386.137C293.636 386.485 294.317 386.658 295.279 386.658H297.805V391.148H294.277ZM316.828 391.148C315.412 391.148 314.169 390.935 313.1 390.507C312.057 390.053 311.242 389.318 310.654 388.302C310.066 387.26 309.772 385.843 309.772 384.052V375.593H306.364V371.263H309.772L310.374 365.851H315.185V371.263H320.477V375.593H315.185V384.132C315.185 385.095 315.385 385.763 315.786 386.137C316.187 386.485 316.868 386.658 317.831 386.658H320.356V391.148H316.828ZM331.406 391.63C329.481 391.63 327.744 391.189 326.194 390.307C324.644 389.425 323.414 388.195 322.506 386.618C321.624 385.041 321.182 383.237 321.182 381.206C321.182 379.148 321.637 377.344 322.546 375.794C323.454 374.217 324.684 372.987 326.234 372.105C327.784 371.223 329.508 370.782 331.406 370.782C333.33 370.782 335.067 371.223 336.618 372.105C338.168 372.987 339.384 374.217 340.266 375.794C341.175 377.344 341.629 379.148 341.629 381.206C341.629 383.264 341.175 385.081 340.266 386.658C339.357 388.208 338.128 389.425 336.577 390.307C335.054 391.189 333.33 391.63 331.406 391.63ZM331.366 387.059C332.248 387.059 333.036 386.845 333.731 386.418C334.453 385.99 335.027 385.349 335.455 384.493C335.883 383.611 336.096 382.515 336.096 381.206C336.096 379.896 335.883 378.814 335.455 377.958C335.027 377.076 334.453 376.422 333.731 375.994C333.036 375.566 332.274 375.353 331.446 375.353C330.591 375.353 329.802 375.566 329.08 375.994C328.359 376.422 327.784 377.076 327.357 377.958C326.929 378.814 326.715 379.896 326.715 381.206C326.715 382.515 326.929 383.611 327.357 384.493C327.784 385.349 328.345 385.99 329.04 386.418C329.762 386.845 330.537 387.059 331.366 387.059ZM363.349 391.63C361.291 391.63 359.42 391.215 357.736 390.387C356.052 389.558 354.716 388.315 353.727 386.658C352.738 385.001 352.244 382.89 352.244 380.324V363.085H357.656V380.364C357.656 381.754 357.883 382.93 358.338 383.892C358.792 384.827 359.46 385.522 360.342 385.977C361.224 386.431 362.266 386.658 363.469 386.658C364.699 386.658 365.741 386.431 366.596 385.977C367.452 385.522 368.106 384.827 368.561 383.892C369.042 382.93 369.282 381.754 369.282 380.364V363.085H374.695V380.324C374.695 382.89 374.174 385.001 373.131 386.658C372.116 388.315 370.752 389.558 369.042 390.387C367.331 391.215 365.434 391.63 363.349 391.63ZM386.227 391.63C384.463 391.63 382.899 391.336 381.536 390.748C380.2 390.16 379.117 389.358 378.289 388.342C377.487 387.3 377.019 386.124 376.886 384.814H382.298C382.405 385.295 382.619 385.75 382.939 386.177C383.26 386.605 383.688 386.952 384.222 387.22C384.784 387.46 385.425 387.58 386.147 387.58C386.895 387.58 387.496 387.487 387.951 387.3C388.405 387.086 388.739 386.819 388.953 386.498C389.194 386.177 389.314 385.83 389.314 385.455C389.314 384.948 389.14 384.56 388.793 384.293C388.472 383.999 387.991 383.745 387.349 383.531C386.735 383.317 386 383.09 385.144 382.85C384.262 382.609 383.367 382.355 382.458 382.088C381.576 381.821 380.761 381.486 380.013 381.086C379.264 380.658 378.663 380.123 378.209 379.482C377.781 378.814 377.567 377.985 377.567 376.996C377.567 375.847 377.888 374.805 378.529 373.869C379.171 372.934 380.093 372.185 381.296 371.624C382.525 371.063 383.982 370.782 385.666 370.782C388.071 370.782 389.982 371.33 391.399 372.426C392.842 373.522 393.684 375.032 393.924 376.956H388.833C388.699 376.288 388.352 375.767 387.79 375.393C387.256 375.018 386.548 374.831 385.666 374.831C384.73 374.831 384.009 375.018 383.501 375.393C383.02 375.74 382.779 376.168 382.779 376.676C382.779 377.05 382.939 377.37 383.26 377.638C383.581 377.878 384.049 378.105 384.663 378.319C385.305 378.506 386.067 378.72 386.949 378.961C388.365 379.335 389.661 379.736 390.837 380.163C392.013 380.591 392.949 381.179 393.644 381.927C394.339 382.649 394.686 383.678 394.686 385.014C394.713 386.297 394.379 387.433 393.684 388.422C392.989 389.411 392.013 390.2 390.757 390.788C389.501 391.349 387.991 391.63 386.227 391.63ZM400.199 391.349C399.21 391.349 398.409 391.055 397.794 390.467C397.179 389.852 396.872 389.117 396.872 388.262C396.872 387.38 397.179 386.645 397.794 386.057C398.409 385.442 399.21 385.135 400.199 385.135C401.161 385.135 401.95 385.442 402.565 386.057C403.179 386.645 403.487 387.38 403.487 388.262C403.487 389.117 403.179 389.852 402.565 390.467C401.95 391.055 401.161 391.349 400.199 391.349Z" fill="white"/>
</svg>
