<svg width="28" height="27" viewBox="0 0 28 27" fill="none" xmlns="http://www.w3.org/2000/svg">
<path d="M15.8208 9.15695C15.1394 9.64277 14.3054 9.92855 13.4048 9.92855C11.1036 9.92855 9.2381 8.06307 9.2381 5.76188C9.2381 3.46069 11.1036 1.59521 13.4048 1.59521C14.8964 1.59521 16.205 2.37904 16.9411 3.55729M6.85715 23.1275H9.96464C10.3698 23.1275 10.7725 23.1758 11.1653 23.2722L14.4487 24.0701C15.1611 24.2436 15.9033 24.2605 16.6232 24.1207L20.2535 23.4144C21.2126 23.2276 22.0947 22.7684 22.7861 22.0958L25.3546 19.5973C26.0881 18.8849 26.0881 17.7291 25.3546 17.0155C24.6942 16.3731 23.6485 16.3008 22.9014 16.8456L19.9079 19.0296C19.4792 19.3429 18.9575 19.5117 18.421 19.5117H15.5304L17.3703 19.5116C18.4074 19.5116 19.2475 18.6944 19.2475 17.6856V17.3204C19.2475 16.4827 18.6614 15.7523 17.8263 15.5498L14.9864 14.8592C14.5243 14.7471 14.051 14.6905 13.5752 14.6905C12.4266 14.6905 10.3475 15.6414 10.3475 15.6414L6.85715 17.101M23.5238 6.95236C23.5238 9.25354 21.6583 11.119 19.3571 11.119C17.056 11.119 15.1905 9.25354 15.1905 6.95236C15.1905 4.65117 17.056 2.78569 19.3571 2.78569C21.6583 2.78569 23.5238 4.65117 23.5238 6.95236ZM2.09525 16.5952L2.09525 23.5C2.09525 24.1667 2.09525 24.5001 2.225 24.7547C2.33913 24.9787 2.52125 25.1608 2.74526 25.275C2.99991 25.4047 3.33328 25.4047 4.00001 25.4047H4.95239C5.61912 25.4047 5.95248 25.4047 6.20714 25.275C6.43114 25.1608 6.61326 24.9787 6.7274 24.7547C6.85715 24.5001 6.85715 24.1667 6.85715 23.5V16.5952C6.85715 15.9285 6.85715 15.5951 6.7274 15.3405C6.61326 15.1165 6.43114 14.9343 6.20714 14.8202C5.95248 14.6905 5.61912 14.6905 4.95239 14.6905L4.00001 14.6905C3.33328 14.6905 2.99991 14.6905 2.74526 14.8202C2.52125 14.9343 2.33913 15.1165 2.225 15.3405C2.09525 15.5951 2.09525 15.9285 2.09525 16.5952Z" stroke="#2E4580" stroke-width="2.38095" stroke-linecap="round" stroke-linejoin="round"/>
</svg>
