<svg width="46" height="46" viewBox="0 0 46 46" fill="none" xmlns="http://www.w3.org/2000/svg">
<path d="M33.7996 5.35769C35.6372 3.45963 38.6735 3.43508 40.5416 5.30317C42.3585 7.12007 42.3923 10.0553 40.6177 11.9135L35.3251 17.456C34.9102 17.8904 34.7028 18.1076 34.575 18.362C34.4618 18.5872 34.3945 18.8326 34.3768 19.084C34.357 19.3681 34.4245 19.6607 34.5596 20.246L37.8508 34.508C37.9894 35.1088 38.0587 35.4092 38.0364 35.6998C38.0166 35.957 37.9447 36.2074 37.8252 36.436C37.6902 36.6943 37.4722 36.9123 37.0362 37.3483L36.33 38.0545C35.1754 39.2091 34.5981 39.7864 34.0073 39.8909C33.4914 39.9821 32.9606 39.8568 32.54 39.5445C32.0583 39.1868 31.8001 38.4123 31.2838 36.8633L27.4556 25.3789L21.0836 31.751C20.7032 32.1313 20.5131 32.3215 20.3859 32.5455C20.2732 32.7439 20.197 32.9609 20.1611 33.1862C20.1205 33.4406 20.1502 33.7079 20.2096 34.2425L20.5595 37.3918C20.6189 37.9264 20.6486 38.1937 20.6081 38.4481C20.5721 38.6734 20.496 38.8905 20.3833 39.0889C20.2561 39.3128 20.0659 39.503 19.6855 39.8834L19.3093 40.2596C18.4083 41.1606 17.9578 41.6112 17.4571 41.7416C17.018 41.8561 16.5524 41.81 16.1442 41.6116C15.6789 41.3855 15.3254 40.8554 14.6186 39.7951L11.6313 35.3142C11.505 35.1247 11.4419 35.03 11.3686 34.9441C11.3034 34.8678 11.2324 34.7968 11.1561 34.7316C11.0702 34.6583 10.9755 34.5952 10.786 34.4689L6.30513 31.4816C5.24485 30.7748 4.7147 30.4214 4.48857 29.956C4.29023 29.5478 4.24413 29.0823 4.35857 28.6431C4.48905 28.1425 4.93958 27.6919 5.84065 26.7909L6.21685 26.4147C6.5972 26.0343 6.78738 25.8441 7.01134 25.7169C7.20975 25.6042 7.42679 25.5281 7.65212 25.4921C7.90647 25.4516 8.17378 25.4813 8.70839 25.5407L11.8577 25.8906C12.3923 25.95 12.6596 25.9797 12.914 25.9391C13.1393 25.9032 13.3564 25.8271 13.5548 25.7144C13.7787 25.5872 13.9689 25.397 14.3492 25.0166L20.7213 18.6446L9.23695 14.8165C7.68795 14.3001 6.91344 14.042 6.55574 13.5602C6.24339 13.1396 6.1181 12.6089 6.20935 12.0929C6.31386 11.5021 6.89114 10.9248 8.0457 9.77024L8.75193 9.06401C9.18792 8.62803 9.40591 8.41003 9.66419 8.275C9.89278 8.15549 10.1433 8.08365 10.4004 8.06385C10.691 8.04147 10.9914 8.11079 11.5922 8.24943L25.8001 11.5282C26.3905 11.6644 26.6857 11.7325 26.9707 11.7123C27.2458 11.6927 27.5135 11.6136 27.7551 11.4804C28.0053 11.3425 28.216 11.1248 28.6375 10.6895L33.7996 5.35769Z" stroke="#2E4580" stroke-width="3.80952" stroke-linecap="round" stroke-linejoin="round"/>
</svg>
