<svg width="1200" height="552" viewBox="0 0 1200 552" fill="none" xmlns="http://www.w3.org/2000/svg">
<path d="M0 507.517C0 522.826 0 530.481 2.97932 536.328C5.60001 541.471 9.78171 545.653 14.9251 548.274C20.7723 551.253 28.4268 551.253 43.7358 551.253H1121.7C1147.28 551.253 1160.07 551.253 1167.32 545.895C1173.63 541.223 1177.63 534.061 1178.3 526.234C1179.06 517.255 1172.35 506.364 1158.94 484.581L929.322 111.783C925.167 105.037 923.089 101.664 920.303 99.1019C917.835 96.8323 914.97 95.0362 911.853 93.8031C908.332 92.4111 904.391 92.0101 896.509 91.2082L48.1624 4.89995C31.4766 3.20239 23.1337 2.3536 16.6834 5.08275C11.0177 7.47995 6.32633 11.7183 3.36799 17.1123C0 23.2531 0 31.6391 0 48.4111V507.517Z" fill="#2F4580"/>
<mask id="mask0_52_1454" style="mask-type:alpha" maskUnits="userSpaceOnUse" x="0" y="3" width="1179" height="549">
<path d="M0 510.251C0 522.987 0 529.355 2.08074 534.379C4.85506 541.076 10.1765 546.398 16.8743 549.172C21.8976 551.253 28.2658 551.253 41.0023 551.253H1126.59C1147.86 551.253 1158.49 551.253 1164.9 547.493C1173.44 542.48 1178.6 533.238 1178.39 523.335C1178.23 515.908 1172.65 506.855 1161.5 488.748L928.614 110.634C925.153 105.016 923.423 102.207 921.206 99.9715C918.25 96.9913 914.647 94.7321 910.676 93.3689C907.699 92.3466 904.417 92.0127 897.852 91.3448L45.1523 4.59371C31.2728 3.18165 24.333 2.47562 18.823 4.28117C11.4763 6.68857 5.4926 12.0944 2.35397 19.1597C0 24.4587 0 31.4343 0 45.3854V510.251Z" fill="#2F4580"/>
</mask>
<g mask="url(#mask0_52_1454)">
<g opacity="0.6">
<g opacity="0.2">
<path d="M672.254 494.758C653.741 483.178 637.406 469.494 624.338 453.704C641.762 448.44 658.097 441.072 672.254 432.65C691.311 421.071 707.646 406.86 720.714 390.543C729.426 395.807 739.227 400.017 750.662 403.175C765.363 406.86 782.787 408.965 803.478 408.965C915.101 408.965 934.158 348.437 934.158 258.96L934.158 39.4781L672.798 39.4781L672.798 196.326C672.798 269.486 658.097 323.173 593.301 340.542C588.401 342.121 582.411 343.173 576.966 344.226C574.788 331.068 574.244 317.383 574.244 303.698L574.244 -78.9473L1033.8 -78.9473L1033.8 303.698C1033.8 423.176 960.294 527.917 804.023 527.917C750.117 527.917 706.557 515.285 672.254 494.758Z" fill="white"/>
</g>
<g opacity="0.4">
<path d="M540.485 464.959C571.522 464.959 599.291 460.748 624.338 453.38C641.762 448.116 658.097 440.748 672.254 432.326C691.312 420.747 707.647 406.536 720.715 390.22C733.238 375.482 743.039 358.64 750.662 340.744C763.73 310.217 770.264 276.531 770.264 241.267L770.264 39.1543L672.799 39.1543L672.799 196.002C672.799 269.163 658.097 322.849 593.302 340.218C588.401 341.797 582.412 342.85 576.967 343.902C566.077 345.481 554.098 346.534 540.485 346.534C428.863 346.534 409.805 286.005 409.805 196.528L409.805 39.1543L573.7 39.1543L573.7 -79.271L310.706 -79.271L310.706 241.267C310.706 360.219 384.214 464.959 540.485 464.959Z" fill="white"/>
</g>
</g>
</g>
</svg>
