<svg width="30" height="30" viewBox="0 0 30 30" fill="none" xmlns="http://www.w3.org/2000/svg">
<path d="M10.2381 10.2382H10.25M3.09522 6.90486L3.09521 12.2317C3.09521 12.814 3.09521 13.1052 3.161 13.3792C3.21933 13.6222 3.31553 13.8544 3.44607 14.0674C3.59331 14.3077 3.79921 14.5136 4.211 14.9254L13.3403 24.0547C14.7547 25.4691 15.4618 26.1762 16.2773 26.4412C16.9946 26.6743 17.7673 26.6743 18.4846 26.4412C19.3 26.1762 20.0072 25.4691 21.4215 24.0547L24.0546 21.4217C25.4689 20.0073 26.1761 19.3001 26.4411 18.4847C26.6741 17.7674 26.6741 16.9947 26.4411 16.2774C26.1761 15.462 25.4689 14.7548 24.0546 13.3404L14.9253 4.21112C14.5135 3.79933 14.3076 3.59344 14.0673 3.44619C13.8543 3.31565 13.622 3.21945 13.3791 3.16112C13.1051 3.09534 12.8139 3.09534 12.2315 3.09534L6.90474 3.09534C5.57128 3.09534 4.90455 3.09534 4.39524 3.35485C3.94723 3.58312 3.58299 3.94735 3.35472 4.39536C3.09522 4.90467 3.09522 5.5714 3.09522 6.90486ZM10.8333 10.2382C10.8333 10.5669 10.5668 10.8334 10.2381 10.8334C9.90933 10.8334 9.64284 10.5669 9.64284 10.2382C9.64284 9.90945 9.90933 9.64296 10.2381 9.64296C10.5668 9.64296 10.8333 9.90945 10.8333 10.2382Z" stroke="#2E4580" stroke-width="2.38095" stroke-linecap="round" stroke-linejoin="round"/>
</svg>
