<svg width="30" height="30" viewBox="0 0 30 30" fill="none" xmlns="http://www.w3.org/2000/svg">
<path d="M25.7138 10.2381V4.28577M25.7138 4.28577H19.7614M25.7138 4.28577L18.5709 11.4286M12.8888 17.218C11.4583 15.7875 10.3288 14.1701 9.50027 12.4444C9.429 12.2959 9.39337 12.2217 9.36599 12.1278C9.2687 11.794 9.33858 11.3842 9.54098 11.1016C9.59793 11.022 9.66597 10.954 9.80206 10.8179C10.2183 10.4017 10.4264 10.1936 10.5624 9.98433C11.0755 9.19517 11.0755 8.17782 10.5624 7.38866C10.4264 7.1794 10.2183 6.9713 9.80206 6.5551L9.57007 6.32312C8.9374 5.69045 8.62107 5.37411 8.28133 5.20227C7.60566 4.86052 6.80773 4.86052 6.13206 5.20228C5.79232 5.37411 5.47598 5.69045 4.84331 6.32312L4.65565 6.51078C4.02515 7.14128 3.7099 7.45653 3.46913 7.88514C3.20196 8.36075 3.00986 9.09943 3.01148 9.64493C3.01295 10.1365 3.10831 10.4725 3.29903 11.1445C4.324 14.7557 6.25789 18.1632 9.10073 21.0061C11.9436 23.8489 15.3511 25.7828 18.9623 26.8078C19.6343 26.9985 19.9703 27.0938 20.4619 27.0953C21.0074 27.0969 21.746 26.9048 22.2216 26.6377C22.6503 26.3969 22.9655 26.0816 23.596 25.4511L23.7837 25.2635C24.4163 24.6308 24.7327 24.3145 24.9045 23.9747C25.2463 23.2991 25.2463 22.5011 24.9045 21.8255C24.7327 21.4857 24.4163 21.1694 23.7837 20.5367L23.5517 20.3047C23.1355 19.8885 22.9274 19.6804 22.7181 19.5444C21.929 19.0313 20.9116 19.0313 20.1225 19.5444C19.9132 19.6804 19.7051 19.8885 19.2889 20.3047C19.1528 20.4408 19.0848 20.5089 19.0052 20.5658C18.7226 20.7682 18.3128 20.8381 17.979 20.7408C17.8851 20.7134 17.8109 20.6778 17.6624 20.6065C15.9367 19.778 14.3193 18.6484 12.8888 17.218Z" stroke="#2E4580" stroke-width="2.38095" stroke-linecap="round" stroke-linejoin="round"/>
</svg>
