<svg width="30" height="29" viewBox="0 0 30 29" fill="none" xmlns="http://www.w3.org/2000/svg">
<path d="M11.4286 12.7143L13.8095 15.0953L19.1667 9.73815M24.5238 25.2143V9.50005C24.5238 7.49986 24.5238 6.49977 24.1346 5.7358C23.7921 5.06379 23.2458 4.51743 22.5738 4.17503C21.8098 3.78577 20.8097 3.78577 18.8095 3.78577H11.1905C9.19029 3.78577 8.1902 3.78577 7.42623 4.17503C6.75422 4.51743 6.20786 5.06379 5.86546 5.7358C5.4762 6.49977 5.4762 7.49986 5.4762 9.50005V25.2143L8.75001 22.8334L11.7262 25.2143L15 22.8334L18.2738 25.2143L21.25 22.8334L24.5238 25.2143Z" stroke="#2E4580" stroke-width="2.38095" stroke-linecap="round" stroke-linejoin="round"/>
</svg>
