<svg width="30" height="29" viewBox="0 0 30 29" fill="none" xmlns="http://www.w3.org/2000/svg">
<path d="M24.5238 25.2143C24.5238 23.5529 24.5238 22.7223 24.3187 22.0463C23.857 20.5244 22.6661 19.3334 21.1442 18.8718C20.4682 18.6667 19.6375 18.6667 17.9761 18.6667H12.0238C10.3624 18.6667 9.53168 18.6667 8.85573 18.8718C7.33382 19.3334 6.14285 20.5244 5.68118 22.0463C5.47614 22.7223 5.47614 23.5529 5.47614 25.2143M20.3571 9.14291C20.3571 12.1016 17.9586 14.5001 14.9999 14.5001C12.0413 14.5001 9.6428 12.1016 9.6428 9.14291C9.6428 6.18424 12.0413 3.78577 14.9999 3.78577C17.9586 3.78577 20.3571 6.18424 20.3571 9.14291Z" stroke="#2E4580" stroke-width="2.38095" stroke-linecap="round" stroke-linejoin="round"/>
</svg>
