<svg width="30" height="29" viewBox="0 0 30 29" fill="none" xmlns="http://www.w3.org/2000/svg">
<path d="M11.4285 13.9048L13.8095 16.2858L19.1666 10.9287M24.5238 14.5001C24.5238 20.3435 18.15 24.5934 15.8309 25.9464C15.5674 26.1001 15.4356 26.177 15.2496 26.2169C15.1053 26.2478 14.8947 26.2478 14.7504 26.2169C14.5644 26.177 14.4326 26.1001 14.169 25.9464C11.8499 24.5934 5.47617 20.3435 5.47617 14.5001V8.80675C5.47617 7.85495 5.47617 7.37905 5.63183 6.96996C5.76935 6.60858 5.99281 6.28612 6.2829 6.03047C6.61128 5.74108 7.05688 5.57398 7.94808 5.23978L14.3312 2.84612C14.5787 2.75331 14.7024 2.7069 14.8297 2.68851C14.9426 2.67219 15.0573 2.67219 15.1702 2.68851C15.2975 2.7069 15.4213 2.75331 15.6688 2.84612L22.0519 5.23978C22.9431 5.57398 23.3887 5.74108 23.717 6.03047C24.0071 6.28612 24.2306 6.60858 24.3681 6.96996C24.5238 7.37905 24.5238 7.85495 24.5238 8.80675V14.5001Z" stroke="#2E4580" stroke-width="2.38095" stroke-linecap="round" stroke-linejoin="round"/>
</svg>
