<svg width="30" height="29" viewBox="0 0 30 29" fill="none" xmlns="http://www.w3.org/2000/svg">
<path d="M9.0476 14.5L3.09521 17.4762L14.5741 23.2156C14.7302 23.2937 14.8083 23.3328 14.8902 23.3481C14.9628 23.3618 15.0372 23.3618 15.1097 23.3481C15.1916 23.3328 15.2697 23.2937 15.4259 23.2156L26.9047 17.4762L20.9524 14.5M3.09521 11.5238L14.5741 5.78442C14.7302 5.70634 14.8083 5.6673 14.8902 5.65193C14.9628 5.63832 15.0372 5.63832 15.1097 5.65193C15.1916 5.6673 15.2697 5.70634 15.4259 5.78442L26.9047 11.5238L15.4259 17.2633C15.2697 17.3414 15.1916 17.3804 15.1097 17.3958C15.0372 17.4094 14.9628 17.4094 14.8902 17.3958C14.8083 17.3804 14.7302 17.3414 14.5741 17.2633L3.09521 11.5238Z" stroke="#2E4580" stroke-width="2.38095" stroke-linecap="round" stroke-linejoin="round"/>
</svg>
