<svg width="19" height="19" viewBox="0 0 19 19" fill="none" xmlns="http://www.w3.org/2000/svg">
<path fill-rule="evenodd" clip-rule="evenodd" d="M13.9976 0.458008H5.09082C2.64169 0.458008 0.637451 2.48233 0.637451 4.95801V13.958C0.637451 16.4328 2.64169 18.458 5.09082 18.458H13.9976C16.4467 18.458 18.4509 16.4328 18.4509 13.958V4.95801C18.4509 2.48233 16.4467 0.458008 13.9976 0.458008ZM9.54419 13.2079C7.4943 13.2079 5.83297 11.5285 5.83297 9.45801C5.83297 7.38666 7.4943 5.70793 9.54419 5.70793C11.5932 5.70793 13.2554 7.38666 13.2554 9.45801C13.2554 11.5285 11.5932 13.2079 9.54419 13.2079ZM13.2554 4.58293C13.2554 5.20416 13.7533 5.70793 14.3687 5.70793C14.9842 5.70793 15.4821 5.20416 15.4821 4.58293C15.4821 3.96171 14.9842 3.45793 14.3687 3.45793C13.7533 3.45793 13.2554 3.96171 13.2554 4.58293Z" fill="#2E2E2E"/>
</svg>
