<svg width="20" height="17" viewBox="0 0 20 17" fill="none" xmlns="http://www.w3.org/2000/svg">
<path d="M17.6317 4.45505C17.6445 4.63005 17.6445 4.80405 17.6445 4.97805C17.6445 10.3031 13.6335 16.4391 6.30329 16.4391C4.04494 16.4391 1.94691 15.7781 0.181396 14.6301C0.502039 14.6671 0.810806 14.6801 1.14431 14.6801C3.0078 14.6801 4.72284 14.0441 6.09349 12.9591C4.34084 12.9221 2.87222 11.7621 2.36553 10.1661C2.61195 10.2031 2.85936 10.2281 3.11864 10.2281C3.4759 10.2281 3.83514 10.1781 4.16865 10.0911C2.34079 9.71705 0.972117 8.09605 0.972117 6.13805V6.08805C1.50355 6.38705 2.1201 6.57405 2.77326 6.59905C1.6995 5.87705 0.995868 4.64205 0.995868 3.24505C0.995868 2.49705 1.19281 1.81105 1.53819 1.21305C3.50064 3.65605 6.45075 5.25305 9.75812 5.42805C9.69676 5.12805 9.65915 4.81705 9.65915 4.50505C9.65915 2.28505 11.4365 0.477051 13.6454 0.477051C14.7934 0.477051 15.8295 0.963051 16.5579 1.74905C17.4585 1.57405 18.3215 1.23705 19.0874 0.776051C18.7915 1.71105 18.1611 2.49705 17.3348 2.99605C18.1374 2.90805 18.9152 2.68405 19.6298 2.37205C19.0874 3.17005 18.4095 3.88105 17.6317 4.45505Z" fill="#2E2E2E"/>
</svg>
